<svg xmlns="http://www.w3.org/2000/svg" viewBox="0 0 200 44" width="200" height="44" fill="none">
  <defs>
    <linearGradient id="solana-pay-gradient" x1="19.247" y1="84.573" x2="79.786" y2="16.138" gradientUnits="userSpaceOnUse">
      <stop offset="0.08" stop-color="#9945FF" />
      <stop offset="0.3" stop-color="#8752F3" />
      <stop offset="0.5" stop-color="#5497D5" />
      <stop offset="0.6" stop-color="#43B4CA" />
      <stop offset="0.72" stop-color="#28E0B9" />
      <stop offset="0.97" stop-color="#19FB9B" />
    </linearGradient>
  </defs>

  <!-- Button Background: Standard Solana Pay Rounded Rect -->
  <rect x="0.75" y="0.75" width="198.5" height="42.5" rx="8" fill="#000000" stroke="#333333" stroke-width="1.5" />

  <!-- Solana Logomark -->
  <g transform="translate(16, 11) scale(0.22)">
    <path
      fill="url(#solana-pay-gradient)"
      d="M86.619 69.036 74.403 82.101a2.837 2.837 0 0 1-2.075.899h-57.91a1.421 1.421 0 0 1-1.3-.85 1.411 1.411 0 0 1 .263-1.53l12.225-13.064a2.837 2.837 0 0 1 2.07-.899h57.906a1.423 1.423 0 0 1 1.3.85 1.412 1.412 0 0 1-.263 1.53ZM74.403 42.727a2.837 2.837 0 0 0-2.075-.898h-57.91a1.421 1.421 0 0 0-1.3.85 1.412 1.412 0 0 0 .263 1.529l12.225 13.065a2.84 2.84 0 0 0 2.07.898h57.906a1.422 1.422 0 0 0 1.3-.85 1.412 1.412 0 0 0-.263-1.529L74.403 42.727Zm-59.985-9.384h57.91a2.844 2.844 0 0 0 2.075-.899l12.216-13.065A1.414 1.414 0 0 0 85.582 17H27.676a2.845 2.845 0 0 0-2.07.899L13.384 30.964a1.412 1.412 0 0 0 1.034 2.379Z"
    />
  </g>

  <!-- Button Typography -->
  <text
    x="46"
    y="27"
    fill="#ffffff"
    font-family="-apple-system, BlinkMacSystemFont, 'Segoe UI', Roboto, 'Helvetica Neue', Arial, sans-serif"
    font-size="14"
  >
    <tspan fill="#d1d5db" font-weight="400">Pay with </tspan>
    <tspan fill="#ffffff" font-weight="700">Solana</tspan>
  </text>
</svg>
